<?xml version="1.0" encoding="UTF-8" standalone="no"?>
<!-- Created with Inkscape (http://www.inkscape.org/) -->

<svg
   width="210mm"
   height="297mm"
   viewBox="0 0 210 297"
   version="1.1"
   id="svg1"
   xml:space="preserve"
   xmlns="http://www.w3.org/2000/svg"
   xmlns:svg="http://www.w3.org/2000/svg"
   ><path
     style="fill:#050505;stroke:none"
     d="m 63.214958,104.13869 c -2.726099,0 -5.915217,-0.35964 -8.191467,1.46378 -2.294455,1.838 -2.127282,4.34853 -2.127282,7.00288 v 14.55209 72.23124 19.05 c 0,2.57471 -0.607473,5.97934 0.965443,8.20107 2.609106,3.68532 8.095086,2.64685 11.99914,2.64685 H 97.875373 130.6837 c 3.8087,0 9.99603,1.18329 13.21855,-1.22717 2.91606,-2.18122 2.39187,-5.89879 2.39187,-9.09158 2.69755,0 5.94491,0.33818 8.19147,-1.46378 2.26676,-1.81818 2.12728,-4.38007 2.12728,-7.00289 v -14.2875 -72.49583 -19.05 c 0,-2.57469 0.60747,-5.979354 -0.96544,-8.201061 -2.60912,-3.68532 -8.09508,-2.64685 -11.99914,-2.64685 H 111.63371 78.825374 c -3.888332,0 -9.923096,-1.153628 -13.225082,1.267186 -2.927557,2.1463 -2.385334,5.866565 -2.385334,9.051565 m 5.560334,-6.235264 c 1.885497,-0.532453 4.393471,-0.114738 6.345916,-0.114738 h 13.493749 43.920833 14.55208 c 1.65444,0 4.25741,-0.512501 5.32923,1.087119 1.11138,1.658673 0.4916,4.934733 0.4916,6.850383 v 17.4625 65.35208 19.84375 c 0,1.99417 0.6588,5.71861 -1.85617,6.46309 -1.89046,0.55962 -4.38558,0.15149 -6.34591,0.15149 H 131.21287 87.29204 72.739958 c -1.560556,0 -4.289168,0.49408 -5.244304,-1.11489 -0.987353,-1.66324 -0.311946,-5.19319 -0.311946,-7.08719 v -17.4625 -65.0875 -19.84375 c 0,-1.8758 -0.793742,-5.826241 1.591584,-6.499844 m 8.197999,9.674844 h 65.881249 v 72.23125 H 76.973291 v -27.25208 c 0,-1.93312 1.071438,-8.12122 -1.852899,-8.23455 -3.16917,-0.12281 -2.115851,6.29705 -2.115851,8.23455 v 21.16666 c 0,2.51049 -0.713288,6.31806 0.965445,8.41767 1.183439,1.48015 2.881223,1.37191 4.590805,1.37191 h 10.054166 42.333333 c 4.08822,0 8.66355,0.58015 12.7,-0.0565 1.50641,-0.23761 2.67662,-1.38438 3.03393,-2.85386 1.31098,-5.3916 0.14107,-12.43728 0.14107,-17.99167 v -38.1 -13.22916 c 0,-1.8309 0.39942,-4.22243 -0.71516,-5.8094 -1.17364,-1.67106 -3.23732,-1.86052 -5.10568,-1.86352 H 130.15454 89.144124 79.354541 c -1.651377,6.4e-4 -3.667618,-0.0272 -4.970534,1.16266 -1.974439,1.80309 -1.379466,5.17859 -1.379466,7.56859 v 19.05 c 0,1.92182 -0.95674,7.17688 1.855963,7.48183 3.076609,0.33356 2.112787,-5.40531 2.112787,-7.21725 v -24.07708 m -13.758333,0.52917 v 81.22708 19.31458 c 0,3.05653 -0.409735,6.36757 2.162602,8.5912 2.070721,1.79001 4.791031,1.72755 7.362398,1.72755 h 13.493749 56.091663 c 0,1.53246 0.51131,4.20921 -0.46098,5.49582 -0.92613,1.22552 -2.96161,0.85418 -4.30152,0.85418 H 126.45037 76.444124 62.950375 c -1.510341,0 -3.961457,0.45993 -5.256347,-0.46098 -1.814527,-1.29047 -1.093653,-5.01681 -1.093653,-6.94735 V 198.59493 129.2741 114.45744 c 0,-1.64985 -0.496568,-4.44541 0.873982,-5.68487 1.316207,-1.19031 4.100616,-0.66513 5.740601,-0.66513 m 34.924999,35.98333 c -4.334914,-2.27224 -10.280061,3.01159 -9.706086,7.67292 0.1974,1.6031 2.979017,3.55172 2.629095,4.77291 -1.592126,5.55633 -9.659426,9.25641 -4.461375,15.86438 0.690845,0.87824 1.55127,1.64331 2.542533,2.16322 4.861468,2.54983 8.918996,-0.80885 11.672286,-4.54427 0.83404,-1.13153 1.8742,-3.3934 3.19032,-3.99345 0.85078,-0.3879 1.83723,0.57831 2.59989,0.86745 1.73131,0.65637 3.60807,0.39655 4.98115,-0.8993 1.63036,-1.53866 3.81965,-4.22485 3.89301,-6.55803 0.0529,-1.68354 -1.60374,-3.21749 -0.67656,-4.7625 3.99508,-6.65718 9.47749,-12.82472 14.12642,-19.05 1.83939,-2.46309 5.0515,-5.44718 5.8388,-8.46666 0.84588,-3.24416 0.15298,-7.49889 0.1476,-10.84792 -0.002,-1.28905 0.0685,-2.95026 -1.09651,-3.8091 -1.09906,-0.81021 -2.74805,-0.3377 -3.93058,-0.006 -3.23618,0.90686 -7.73013,1.47874 -10.57291,3.28769 -1.41067,0.89766 -2.3651,2.65253 -3.35119,3.96732 -2.17509,2.90011 -4.3071,5.83099 -6.4823,8.73125 -3.71547,4.95396 -8.58621,10.06754 -11.343593,15.61042 m 32.808333,-27.78125 c 0,2.95094 0.80202,7.26931 -0.19252,10.05417 -0.74291,2.08027 -2.82252,4.06469 -4.13962,5.82083 -2.96641,3.95522 -5.9432,7.91194 -8.85701,11.90625 -1.61759,2.21742 -3.25428,4.41866 -4.90132,6.61458 -0.51586,0.68776 -1.18827,2.02481 -2.0638,2.29367 -0.82834,0.25436 -1.73909,-0.69085 -2.33531,-1.13653 -1.99416,-1.49061 -4.96584,-3.00428 -6.51517,-4.94725 -0.77935,-0.97737 0.22616,-2.01781 0.80662,-2.82447 1.60763,-2.23411 3.29732,-4.41236 4.94828,-6.61458 3.15801,-4.2125 6.25399,-8.47373 9.39352,-12.7 1.2901,-1.73666 2.63507,-4.33642 4.41074,-5.59484 2.28745,-1.62113 6.71681,-2.24625 9.44559,-2.87183 m -38.629167,35.45417 c 0.244515,-1.22868 1.753341,-4.2655 3.220936,-4.34011 1.093828,-0.0556 2.319525,1.25535 3.129064,1.85984 2.550987,1.90486 5.125487,3.77818 7.672917,5.68875 1.31005,0.98254 4.36245,2.43081 4.98156,3.9812 0.44908,1.1246 -1.93947,4.28991 -3.13989,4.18189 -1.42521,-0.12825 -3.12061,-1.97937 -4.22292,-2.8061 -1.49049,-1.11787 -2.99293,-2.21595 -4.497917,-3.31382 -2.378081,-1.7348 -4.645053,-3.69561 -7.14375,-5.25165 m 8.731247,11.1125 v 0.26458 c -1.863065,2.34761 -3.559922,6.02838 -6.095825,7.67434 -2.676222,1.73705 -6.48842,-0.40359 -5.983953,-3.70559 0.466412,-3.05292 3.967268,-6.2776 5.729781,-8.73125 l 6.349997,4.49792 m 18.27176,-0.52182 c -1.61711,0.88573 -1.11007,3.06327 0.51774,3.54533 3.51273,1.04025 8.50461,0.15148 12.16675,0.15148 1.27011,0 3.05378,0.30094 4.12901,-0.53162 1.40466,-1.08762 0.6568,-3.0778 -0.95524,-3.3767 -3.55399,-0.65894 -7.75937,-0.0604 -11.37585,-0.0604 -1.29963,0 -3.30867,-0.37094 -4.48241,0.27193 m 0.51774,7.55247 c -1.76452,0.52254 -2.10598,2.9476 -0.26356,3.65761 1.83287,0.70635 7.7042,0.74705 9.49111,-0.0674 1.56496,-0.71326 1.21234,-2.91045 -0.24743,-3.50532 -1.9672,-0.80164 -6.94842,-0.68659 -8.98012,-0.0849 M 76.973291,204.94493 V 194.3616 h 65.881249 v 10.58333 h -23.54792 c -1.86893,0 -6.94105,-0.88247 -7.27522,1.85617 -0.38039,3.1174 5.72792,2.11258 7.53981,2.11258 h 20.37291 c 2.69519,0 6.12882,0.24221 6.78914,-3.175 0.62293,-3.22373 0.0955,-7.0362 0.09,-10.31875 -0.003,-1.50128 -0.14033,-3.02465 -1.37926,-4.06449 -2.73319,-2.29397 -9.77143,-0.96259 -13.17283,-0.96259 H 96.287873 79.883707 c -2.364495,0 -4.972742,-0.31362 -6.313047,2.11768 -0.954487,1.73145 -0.566119,4.18282 -0.566119,6.0844 0,2.60329 -0.801138,6.77659 1.005454,8.90887 1.574932,1.85885 4.23433,1.40988 6.402879,1.40988 H 96.02329 c 2.729803,0 5.47372,0.0817 8.20208,-0.004 1.1966,-0.0376 2.32368,-0.45182 2.32368,-1.84882 0,-2.94416 -4.94556,-2.11585 -6.821594,-2.11585 z"
     id="path1" /></svg>
