<?xml version="1.0" encoding="UTF-8" standalone="no"?>
<!-- Created with Inkscape (http://www.inkscape.org/) -->

<svg
   width="210mm"
   height="297mm"
   viewBox="0 0 210 297"
   version="1.1"
   id="svg1"
   xml:space="preserve"
   xmlns="http://www.w3.org/2000/svg"
   xmlns:svg="http://www.w3.org/2000/svg"
   ><path
     style="fill:#050505;stroke:none"
     d="m 80.469405,193.098 v 13.22917 c 0,2.83964 -0.09484,5.52153 2.1281,7.64514 2.418517,2.31047 5.912563,1.87986 8.984399,1.87986 h 20.637496 29.63334 c 3.63151,0 9.0501,1.00324 12.17063,-1.22717 2.9261,-2.09146 2.91061,-5.06274 2.91061,-8.29783 v -12.96459 c 0,-2.12587 0.44284,-4.81557 -0.0841,-6.87794 -0.60606,-2.372 -3.46914,-1.68616 -3.60842,0.52815 -0.34651,5.50916 -0.0116,11.14747 -0.0116,16.66854 0,2.12873 0.50396,5.07556 -0.90746,6.86753 -1.95928,2.48753 -7.87143,1.33456 -10.73421,1.33456 H 111.16107 92.640238 c -2.083852,0 -5.465166,0.66472 -7.114965,-0.85418 -1.459144,-1.34338 -1.087118,-3.43565 -1.087118,-5.23124 v -12.7 h 4.233333 c 0,3.28982 -1.404852,10.81945 1.35068,13.11831 2.545311,2.12348 8.987169,0.90461 12.143072,0.90461 h 32.54375 c 3.34674,0 10.21943,1.30353 12.87741,-1.00261 1.62767,-1.4122 1.1455,-3.94755 1.1455,-5.87656 V 185.42508 132.773 119.27925 c 0,-1.77326 0.45921,-4.30043 -0.66513,-5.80919 -1.26604,-1.69892 -3.25873,-1.59914 -5.1557,-1.59914 h -12.17083 v -4.7625 h 14.81666 c 1.8308,0 4.51819,-0.49561 6.07378,0.66513 2.74573,2.0488 1.59914,7.96907 1.59914,10.97654 v 31.75 22.22499 c 0,1.72788 -0.92393,6.83166 1.8529,6.76219 2.84039,-0.0711 1.85126,-5.71821 1.85126,-7.55594 v -24.60624 -30.95625 c 0,-4.00594 0.95284,-8.98556 -2.64685,-11.76539 -2.26317,-1.74771 -5.24678,-1.46378 -7.93648,-1.46378 H 130.74024 V 90.175088 c 0,-2.496415 0.22618,-5.058928 -1.42623,-7.142732 -2.13711,-2.695071 -5.23424,-2.64685 -8.36336,-2.64685 H 105.34024 86.554821 c -1.637424,0 -5.792064,-0.495545 -5.165293,2.377164 0.608587,2.789356 8.276662,1.591585 10.45696,1.591585 h 25.929162 c 2.61412,0 7.24909,-0.976458 8.68389,1.853101 0.87366,1.722941 0.31195,4.718333 0.31195,6.613566 v 15.610418 55.82708 16.93333 c 0,1.87936 0.60718,5.03664 -0.64391,6.58682 -1.18952,1.4739 -2.94257,1.35068 -4.64776,1.35068 H 110.89649 74.913155 64.858989 c -1.468495,0 -3.405931,0.32037 -4.761478,-0.34869 -2.904339,-1.43352 -2.117688,-5.74136 -2.117688,-8.38256 V 156.5855 109.48967 94.673005 c 0,-2.361581 -0.37921,-5.103266 0.181083,-7.408333 1.126048,-4.632606 9.688584,-2.910417 13.312666,-2.910417 1.61224,0 4.792266,0.399346 4.621431,-2.115851 -0.129817,-1.911277 -2.142174,-1.852349 -3.563098,-1.852898 -4.030721,-0.0016 -8.448083,-0.509288 -12.435416,0.07962 -5.088245,0.751504 -5.820833,5.21206 -5.820833,9.445377 v 29.368745 52.91667 11.64166 c 0,2.76484 -0.07408,5.3179 2.1281,7.35934 2.274512,2.1085 5.307307,1.90108 8.19065,1.90108 H 80.469405 M 70.680844,88.785211 c -1.556775,0.27298 -2.013462,1.978545 -2.494555,3.241961 -1.276739,3.352888 -2.589847,6.692299 -3.843196,10.054168 -0.456753,1.22515 -1.466727,2.92752 -0.57898,4.1729 0.60067,0.84266 1.810912,1.03098 2.647056,0.42975 0.908526,-0.65328 0.909853,-1.90027 1.733676,-2.59092 0.930537,-0.78012 4.319441,-0.72646 5.410076,-0.26458 1.640161,0.69458 1.217061,3.81083 3.727849,3.16111 1.918754,-0.49652 1.241736,-2.81503 0.754346,-4.11451 L 73.868092,91.762588 c -0.531028,-1.418017 -1.29581,-3.309043 -3.187248,-2.977377 m 0.528145,6.946127 1.322916,3.96875 h -2.910416 l 1.5875,-3.96875 m 21.431249,24.077082 c -2.153208,-2.15297 -4.179469,-3.87289 -7.14375,-4.75291 -12.383102,-3.67623 -20.039318,9.87884 -16.220222,20.36333 2.725447,7.48211 10.47436,13.43401 16.220222,18.56472 1.781892,1.59112 4.318405,4.79654 6.879166,4.90949 2.924531,0.129 6.17321,-4.09772 8.202086,-5.85941 6.96642,-6.04903 17.36136,-14.66792 16.35924,-25.02314 -1.13252,-11.70289 -16.57953,-19.15636 -24.296742,-8.20208 m 46.566662,-3.96875 v 0.26458 l -8.46666,6.35 v -6.61458 h 8.46666 m 5.82083,0.79375 -0.15964,7.09781 -3.8091,3.25524 -10.31875,7.63862 0.15964,-6.86875 3.80911,-3.41856 10.31874,-7.70436 m -64.822908,1.93171 c 3.128285,-0.46103 6.25837,0.52602 8.441966,2.83488 1.069367,1.13071 1.966264,4.13471 3.728866,4.23802 1.888301,0.11068 3.275196,-3.60786 4.498938,-4.74658 3.630708,-3.37843 9.415768,-3.14966 12.952948,0.26459 9.47946,9.15002 -3.1893,21.04769 -9.77897,27.00771 -1.755537,1.58779 -4.98707,5.91078 -7.408332,6.22791 -0.944234,0.12368 -1.745416,-0.8844 -2.38125,-1.43581 -1.794622,-1.55634 -3.512056,-3.19196 -5.291667,-4.76148 -4.590268,-4.04835 -10.524514,-9.11121 -12.381111,-15.15678 -1.802763,-5.87028 0.847724,-13.47461 7.618612,-14.47246 m 64.822908,10.50371 -0.27193,6.5907 -4.22598,3.56227 -9.78958,7.30953 c 0,-1.90755 -0.54903,-4.80953 0.15964,-6.5907 0.53088,-1.33432 2.45242,-2.26513 3.54452,-3.10661 3.21095,-2.47406 6.79763,-6.30106 10.58333,-7.76519 m 0,11.90625 c 0,1.83659 0.52304,4.61024 -0.15964,6.32611 -0.53087,1.3343 -2.45242,2.26514 -3.54452,3.10661 -3.20486,2.46937 -6.80842,6.30521 -10.58333,7.76519 0,-1.82217 -0.60411,-4.96161 0.27193,-6.5909 0.71131,-1.32292 2.52391,-2.28507 3.69682,-3.1652 3.10551,-2.33035 6.62043,-6.21515 10.31874,-7.44181 m 0,11.64166 -0.27193,6.60417 -3.9614,3.4157 -10.05416,7.44263 0.15964,-6.56865 3.54452,-3.06863 10.58333,-7.82522 m 0,11.90625 -0.27193,6.5907 -3.9614,3.35118 -10.05416,7.52062 c 0,-1.88231 -0.63459,-5.17514 0.27193,-6.85528 0.70671,-1.30984 2.54476,-2.21894 3.69682,-3.10661 3.13958,-2.41908 6.60827,-6.07335 10.31874,-7.50061 m -37.55633,2.0495 c -1.98863,0.79208 -0.85737,3.17359 -0.32992,4.56508 1.40459,3.70552 2.78013,7.42626 4.23435,11.1125 0.58466,1.48202 1.67111,2.90703 3.47797,2.18466 1.36103,-0.54414 1.71127,-2.27774 2.17894,-3.50757 1.23847,-3.2568 2.45053,-6.52435 3.6666,-9.78959 0.43002,-1.15465 1.33187,-2.99581 0.35625,-4.11859 -0.63767,-0.73386 -1.90547,-0.77225 -2.64665,-0.18293 -0.82785,0.65824 -0.79435,1.87504 -1.56198,2.55438 -0.89473,0.79182 -4.31925,0.71475 -5.38619,0.26458 -1.66122,-0.70091 -1.38145,-4.12126 -3.98937,-3.08252 m 7.923,7.21092 -1.32291,3.96875 h -0.26459 l -1.32291,-3.96875 h 2.91041 m 29.63333,2.38125 -0.27193,6.79974 -6.60723,5.31556 -13.49375,10.33998 -6.08542,4.38298 -8.73125,0.14924 c 2.78662,-3.42324 8.51493,-7.61454 12.43542,-9.67587 1.78046,-0.93615 3.827,-0.54949 5.55523,-1.84862 1.84261,-1.3851 1.93036,-3.4095 3.31178,-4.96808 1.72824,-1.94986 4.39872,-3.47094 6.47882,-5.03769 2.39502,-1.80397 4.73523,-4.09266 7.40833,-5.45724 m 0,11.90625 -0.27193,6.60416 -4.22598,3.6023 -6.35,4.64879 -8.99583,0.226 11.37708,-8.90356 8.46666,-6.17769 m -44.44999,5.02708 v 0.26458 l -7.937502,5.82084 V 193.098 h 7.937502 m 15.61041,0 v 0.26458 c -4.14267,2.73756 -8.29093,7.928 -12.96458,9.59707 -2.5107,0.89663 -6.338497,0.19252 -8.995832,0.19252 l 8.731252,-6.91265 4.23333,-2.98575 8.99583,-0.15577 m 28.83958,6.87917 v 3.175 h -4.49791 z"
     id="path1" /></svg>
