<?xml version="1.0" encoding="UTF-8" standalone="no"?>
<!-- Created with Inkscape (http://www.inkscape.org/) -->

<svg
   width="210mm"
   height="297mm"
   viewBox="0 0 210 297"
   version="1.1"
   id="svg1"
   xml:space="preserve"
   xmlns="http://www.w3.org/2000/svg"
   xmlns:svg="http://www.w3.org/2000/svg"
   ><path
     style="fill:#050505;stroke:none"
     d="m 42.690521,157.47378 c 2.950296,-0.84992 5.722702,-2.79601 8.466666,-4.168 8.874912,-4.43745 17.665763,-10.43146 26.987499,-13.82366 1.449863,5.03282 4.941675,9.90554 7.339942,14.55208 6.759132,13.09553 14.778122,26.08505 20.441302,39.6875 -3.88254,1.11849 -7.819334,3.81503 -11.377078,5.73917 -4.705095,2.54466 -9.627574,4.71109 -14.2875,7.33769 -2.247993,1.2671 -4.597373,2.3311 -6.879166,3.5339 -0.70743,0.37292 -1.747014,1.25691 -2.589486,0.85255 -0.809137,-0.38835 -1.204289,-1.63418 -1.578519,-2.38206 -1.024725,-2.04787 -2.145849,-4.04198 -3.174796,-6.08542 -3.885474,-7.71639 -8.04261,-15.29206 -11.906452,-23.01875 -1.253208,-2.50609 -2.448133,-5.35567 -4.025096,-7.66781 -0.590572,-0.8659 -1.548407,-1.57586 -2.643179,-1.16715 -1.173694,0.43817 -1.41055,1.68708 -1.012603,2.74955 1.022944,2.73113 2.70875,5.37559 4.094305,7.9375 4.197037,7.76035 8.241217,15.65703 12.187165,23.54791 1.389557,2.77876 3.052561,7.96577 5.646282,9.75427 3.24224,2.23568 7.147565,-1.10424 10.029462,-2.54519 7.903337,-3.95167 15.647316,-8.218 23.547911,-12.17083 2.68863,-1.34518 7.39379,-2.6923 7.88014,-6.15075 0.4923,-3.50084 -3.53534,-8.65126 -5.15264,-11.64166 -4.770293,-8.82032 -9.170416,-17.84811 -13.839995,-26.72292 l 13.758335,4.23333 c -1.58749,2.35511 -4.984456,5.99334 -4.672472,8.99584 0.308542,2.96932 3.767852,4.42137 5.995382,5.83491 5.95102,3.7764 11.82524,7.68356 17.72709,11.53653 2.99119,1.95278 6.02142,3.84457 8.99583,5.82369 1.86542,1.24122 3.79851,2.4869 6.08521,1.5479 1.72639,-0.70892 2.46986,-2.36851 3.4406,-3.84095 1.79381,-2.72089 3.62194,-5.43394 5.34169,-8.20208 6.31316,-10.16175 12.94428,-20.17444 19.52915,-30.1625 1.8509,-2.80749 3.73339,-5.60833 5.50459,-8.46667 0.96339,-1.5547 2.02105,-3.11823 1.42561,-5.02708 -0.89035,-2.85424 -5.10252,-4.60338 -7.46019,-6.0995 -4.61578,-2.92909 -9.11464,-6.04595 -13.75833,-8.93091 -2.18195,-1.35558 -5.68843,-2.89127 -7.29952,-4.8995 -0.88616,-1.1046 0.22454,-2.99119 0.59389,-4.14717 0.96014,-3.00506 3.94743,-8.45126 1.80737,-11.37219 -1.17037,-1.59741 -6.61471,-3.897642 -8.58385,-3.197451 -3.36871,1.197841 0.2623,3.822671 1.84045,4.338271 1.23853,0.40464 2.47001,0.8187 3.70416,1.23553 l -8.37928,25.66458 -10.40613,32.27917 -22.225,-7.2348 -15.610418,-4.93603 c 3.734349,-13.15966 8.373213,-26.15159 12.612618,-39.15833 1.96128,-6.01731 5.06274,-12.511982 5.90821,-18.78542 2.34658,0.204873 4.64615,1.312153 6.87917,2.025619 4.23176,1.352082 8.48144,2.667634 12.7,4.059999 1.69148,0.558291 5.68694,2.754212 7.2936,1.390902 2.9692,-2.519507 -2.9366,-4.172571 -4.38318,-4.654301 -5.45,-1.814916 -10.95414,-3.474989 -16.40417,-5.291666 -2.21752,-0.739175 -5.05176,-2.19121 -7.40813,-1.232273 -1.84365,0.750277 -2.26691,2.525718 -2.82324,4.230887 -1.05148,3.222825 -1.89284,6.696102 -3.262379,9.789583 -1.771338,-5.434568 -3.915535,-10.791081 -5.932914,-16.139583 -0.771844,-2.04633 -1.295492,-4.889721 -3.328523,-6.061734 -2.821618,-1.626621 -7.343964,1.096235 -10.053145,2.106251 -8.101524,3.02035 -16.22132,5.998543 -24.341665,8.968484 -2.741223,1.00258 -7.36585,1.707422 -8.474628,4.776582 -1.197514,3.314784 2.270267,9.04862 3.434274,12.17083 2.79244,7.49018 5.506649,15.00983 8.327433,22.48958 1.163384,3.0849 3.633709,7.28129 3.798692,10.5719 0.08003,1.59623 -4.260463,3.15087 -5.498271,3.78012 l -12.170833,6.22097 c -1.731142,0.88005 -4.464593,1.85271 -5.557679,3.51553 -1.941934,2.95411 0.595418,6.07467 1.918842,8.71982 0.518584,1.0365 1.029701,2.53198 2.100334,3.12661 1.320295,0.73329 2.845337,-0.3736 2.817322,-1.8039 -0.02532,-1.29292 -1.046573,-2.58253 -1.608732,-3.70396 -0.701926,-1.40026 -1.449303,-2.78731 -2.051337,-4.23334 m 45.508331,-73.289576 6.265686,16.933336 2.771795,7.9375 -3.026172,10.05416 -8.392559,26.19375 c -2.855974,-1.87073 -2.822566,-6.72559 -5.580949,-8.82414 -4.011181,-3.05166 -9.683315,3.33964 -13.733633,4.06164 L 55.207394,109.84879 50.892604,97.677953 C 63.575336,94.216109 75.393723,87.148017 88.198852,84.184204 M 75.763436,106.55048 c -3.323438,0.7916 -3.934775,5.31304 -4.850695,8.06081 -0.802599,2.40779 -2.75028,5.90367 -2.151984,8.46666 0.394293,1.68908 1.631524,2.62678 3.033929,3.48961 3.256221,2.00339 8.668737,6.85732 12.7,5.93107 3.154644,-0.72484 3.810454,-5.24163 4.674306,-7.83318 0.852839,-2.55851 2.730639,-5.98419 2.100538,-8.73125 -0.341961,-1.49085 -1.591997,-2.45861 -2.806095,-3.25544 -2.970801,-1.94977 -8.971864,-7.01627 -12.699999,-6.12828 m 7.672916,22.3483 -10.847916,-6.34999 c 0.580819,-3.93288 2.357887,-8.5368 3.96875,-12.17084 l 7.9375,4.49792 2.726064,2.14423 -0.785788,3.41202 -2.99861,8.46666 m 29.104168,5.02709 -0.52917,1.85208 c -0.8009,-0.18528 -1.57616,-0.49641 -2.38125,-0.65574 -1.89295,-0.37462 -3.64425,1.57113 -2.03255,3.19072 1.63357,1.64157 6.64205,2.8368 8.91172,3.1995 1.00167,0.16007 2.0851,0.005 2.59438,-0.98749 1.40385,-2.73468 -3.68053,-2.39881 -2.85897,-5.27616 1.2953,0.55745 2.82796,1.10369 4.23334,1.27413 1.02699,0.12455 2.1662,0.10153 3.175,-0.13127 8.39257,-1.93678 5.36627,-12.27661 2.32715,-17.28244 -1.05603,-1.73942 -2.69216,-4.67604 -4.7084,-5.39558 -1.80966,-0.64582 -4.64202,0.76336 -6.35,1.33884 -3.11961,1.0511 -6.51828,2.75249 -8.59427,5.37986 -2.94541,3.72772 -2.79351,9.49949 1.7151,11.95893 1.37788,0.75162 2.96807,1.2148 4.49792,1.53462 m 6.61356,-16.03812 c 1.5667,-0.12103 2.43591,1.69126 3.175,2.80895 1.74952,2.64573 5.80125,11.43281 -0.26356,12.0018 -3.24222,0.30417 -8.11899,-2.1016 -11.1125,-3.28872 -1.14969,-0.45593 -2.1429,-1.15729 -2.57499,-2.36328 -1.74159,-4.86088 7.05632,-8.8714 10.77605,-9.15875 m 18.25727,72.12978 c -2.87823,-0.67635 -5.74107,-3.32937 -8.20208,-4.93603 -5.53826,-3.61561 -11.13029,-7.15005 -16.66875,-10.76543 -2.15552,-1.40708 -6.96321,-3.33479 -8.24761,-5.56544 -0.70217,-1.21949 2.99553,-6.42341 4.10043,-7.09966 1.12579,-0.68903 3.53091,0.60947 4.67634,0.95932 3.92238,1.19801 8.57765,3.7667 12.7,3.84463 1.97748,0.0374 2.63465,-1.85726 4.25702,-2.08258 1.17389,-0.16303 2.39242,0.57885 3.68048,0.39648 6.76207,-0.95744 21.35059,-4.62687 17.84651,-14.43879 -0.8955,-2.50755 -3.06143,-4.42703 -5.67567,-4.95032 -0.91729,-0.18361 -2.49703,0.20486 -3.25381,-0.34971 -0.7271,-0.53281 -1.00909,-1.895 -1.5232,-2.63726 -0.90454,-1.30597 -2.09665,-2.09378 -3.42508,-2.91062 1.34183,-5.80007 3.40793,-12.28369 5.82084,-17.72708 7.0754,3.05277 13.57266,8.71993 20.10833,12.81228 1.29158,0.80873 6.18034,3.08748 6.31998,4.67491 0.10214,1.16101 -1.48327,2.75083 -2.07257,3.67947 -2.08402,3.2841 -4.26603,6.50557 -6.35,9.78958 -7.88995,12.43335 -16.92991,24.44335 -24.09116,37.30625 m -0.79375,-46.83125 c 1.15657,0.92955 2.0709,2.12881 1.94701,3.70417 -0.11798,1.50034 -1.50728,3.16457 0.19864,4.29744 1.44852,0.96191 2.5821,-0.76284 3.67518,-1.45929 1.79727,-1.14513 4.37763,-0.60188 5.29963,1.39927 2.6046,5.65316 -6.84047,8.2247 -10.59129,9.08402 -1.1555,0.26473 -3.286,1.03095 -4.42422,0.53795 -1.52809,-0.66186 -0.98244,-3.17677 -0.60267,-4.33439 1.35117,-4.11864 2.19416,-9.56851 4.49772,-13.22917 m -71.437497,30.69167 v 0.26458 c -4.149147,3.20463 -2.71014,10.22389 1.852083,12.25536 3.554604,1.58279 6.632371,-0.0108 9.789583,-1.67202 l 0.79375,1.85208 c -1.06434,0.44324 -2.535173,0.94744 -2.974519,2.1281 -0.653566,1.75633 1.200625,2.8812 2.709936,2.37778 2.390632,-0.79739 6.617574,-2.54085 8.351932,-4.38135 1.040764,-1.10445 0.638337,-2.98528 -0.947681,-3.23502 -1.29701,-0.20423 -2.49973,0.64816 -3.700085,0.99382 l -0.79375,-1.5875 c 3.024024,-1.25901 6.068,-2.9535 6.942454,-6.35 1.373749,-5.33582 -3.322237,-10.56264 -8.794537,-9.26041 -1.964447,-4.55191 -7.570829,-6.22027 -11.637786,-3.23094 -2.781567,2.04453 -4.062103,7.09702 -1.59138,9.84552 m 5.291667,-7.30401 c 4.394402,-1.00393 3.138697,3.56645 5.585035,4.87152 2.117744,1.12977 4.346779,-1.65954 6.481475,0.63982 1.181396,1.27251 1.262068,3.64698 0.04389,4.91133 -2.188795,2.27174 -8.483134,5.52548 -11.581237,6.05458 -3.103317,0.52999 -5.542979,-2.71558 -3.705595,-5.44437 0.727208,-1.08002 2.564826,-1.73188 2.624397,-3.19991 0.04225,-1.04122 -1.071135,-1.81089 -1.541157,-2.64563 -1.115124,-1.9804 -0.224832,-4.65778 2.093189,-5.18734 z"
     id="path1" /></svg>
