<?xml version="1.0" encoding="UTF-8" standalone="no"?>
<!-- Created with Inkscape (http://www.inkscape.org/) -->

<svg
   width="210mm"
   height="297mm"
   viewBox="0 0 210 297"
   version="1.1"
   id="svg1"
   xml:space="preserve"
   xmlns="http://www.w3.org/2000/svg"
   xmlns:svg="http://www.w3.org/2000/svg"
   ><path
     style="fill:#050505;stroke:none"
     d="m 48.089378,154.89217 v 44.02666 11.57111 c 0,1.43682 -0.374099,3.52264 0.491711,4.76708 1.478354,2.12485 6.545038,1.15959 8.821622,1.15959 h 26.246665 c 2.406735,0 8.367538,1.09044 9.875164,-1.15959 1.770469,-2.64232 0.567058,-8.99306 0.567058,-12.10485 v -31.60889 h 23.706662 v 31.60889 c 0,3.11178 -1.20341,9.46254 0.56706,12.10485 1.50763,2.25003 7.46843,1.15959 9.87517,1.15959 h 26.24666 c 2.33442,0 7.6106,0.99658 9.14304,-1.15959 0.8549,-1.20284 0.45252,-3.36637 0.45252,-4.76708 v -11.57111 -44.02666 c 3.46826,0 6.97836,0.15861 10.44222,-0.0113 1.5173,-0.0744 3.01761,-0.65684 3.48053,-2.24753 0.55378,-1.90297 -1.15955,-3.31999 -2.35164,-4.51447 l -9.59556,-9.59556 -40.64,-40.639998 -13.54666,-13.546666 c -1.54528,-1.545281 -3.52049,-4.490725 -5.92667,-4.490725 -2.40618,0 -4.38139,2.945444 -5.92667,4.490725 L 86.471598,97.883282 45.8316,138.52328 l -9.595555,9.59556 c -1.192112,1.19449 -2.90543,2.61148 -2.351634,4.51447 0.462916,1.59068 1.963206,2.17309 3.480523,2.24753 3.557422,0.17452 7.162485,0.0113 10.724444,0.0113 M 168.03382,148.9655 c -2.5869,0 -7.41672,-0.91586 -9.00585,1.70575 -0.91993,1.5176 -0.58971,3.65494 -0.58971,5.34981 v 11.57111 43.18 h -34.99555 v -30.76222 c 0,-3.3205 1.18196,-9.44277 -0.33275,-12.41647 -1.32352,-2.59836 -4.88466,-1.97687 -7.28725,-1.97687 H 96.067154 c -2.328506,0 -5.651481,-0.59134 -7.12829,1.69878 -1.702528,2.64015 -0.49171,9.03442 -0.49171,12.13011 v 31.32667 H 53.733822 v -43.46222 -11.57111 c 0,-1.56704 0.355327,-3.67961 -0.524376,-5.06759 -1.698729,-2.68023 -6.658035,-1.70575 -9.353401,-1.70575 4.100656,-5.82136 10.483672,-10.7659 15.522221,-15.80444 L 90.422709,102.11661 101.7116,90.827727 c 0.94218,-0.942182 2.78702,-3.610529 4.23333,-3.610529 1.44631,0 3.29116,2.668355 4.23333,3.610529 l 11.28889,11.288883 31.04445,31.04445 c 5.03856,5.03856 11.42156,9.98308 15.52222,15.80444 M 87.036043,111.59588 c -1.598731,0.41102 -3.609155,2.4249 -3.885564,4.0674 -0.325751,1.93571 1.309055,3.76902 3.321119,3.19808 1.596471,-0.45301 3.610228,-2.37808 3.885349,-4.04475 0.318219,-1.92777 -1.337468,-3.73065 -3.320904,-3.22073 m -9.313333,9.07467 c -2.536856,0.96404 -4.88276,4.39105 -6.773333,6.28162 -4.993552,4.99355 -10.706301,9.77486 -15.175542,15.24 -1.558615,1.90593 -0.776294,5.38035 2.19332,4.90317 2.508721,-0.40312 4.795134,-3.77164 6.491111,-5.46762 l 11.288888,-11.28888 c 1.722656,-1.72266 4.142637,-3.50034 5.335876,-5.64445 1.271163,-2.28413 -0.822844,-4.98813 -3.36032,-4.02384 z"
     id="path1" /></svg>
