<?xml version="1.0" encoding="UTF-8" standalone="no"?>
<!-- Created with Inkscape (http://www.inkscape.org/) -->

<svg
   width="210mm"
   height="297mm"
   viewBox="0 0 210 297"
   version="1.1"
   id="svg1"
   xml:space="preserve"
   xmlns="http://www.w3.org/2000/svg"
   xmlns:svg="http://www.w3.org/2000/svg"
   ><path
     style="fill:#050505;stroke:none"
     d="m 154.18851,115.06538 c -0.78551,9.95287 -8.49712,15.72839 -17.19792,19.20884 -15.41049,6.16441 -33.56572,6.1201 -49.212496,0.8995 -9.343524,-3.11751 -19.577952,-9.37696 -19.579165,-20.37292 h 0.264583 c 2.039236,4.37288 8.445039,7.78475 12.699999,9.63728 11.860032,5.16364 25.757789,7.30812 38.629169,5.55605 4.29541,-0.58469 8.51883,-1.1887 12.7,-2.38186 1.4006,-0.39969 3.7803,-0.74594 4.09083,-2.49374 0.27106,-1.52566 -1.19331,-2.32348 -2.50333,-2.11769 -3.37829,0.53069 -6.64811,1.8906 -10.05417,2.44842 -14.94944,2.44831 -31.659937,1.01665 -44.979165,-6.64582 -8.512358,-4.89711 -14.405488,-14.53369 -7.495915,-23.317222 3.61981,-4.601543 8.5271,-5.988216 13.036649,-9.21142 1.191402,-0.851555 1.46942,-2.674683 0,-3.437339 -1.825151,-0.947285 -5.286208,1.556511 -6.863651,2.411675 -6.584662,3.569686 -12.694369,9.584516 -13.448835,17.380836 -0.527895,5.45503 -0.04491,11.18692 -0.04491,16.66875 v 33.07291 c 0,7.34971 -1.383412,15.99689 2.790578,22.48958 10.060833,15.64974 32.712223,17.19792 49.332333,17.19792 0.64338,4.29243 3.95806,7.20851 6.87917,10.05804 5.97249,5.82618 11.00823,10.88304 19.84375,10.84384 3.30475,-0.0147 6.94415,-0.6395 10.05396,-1.77226 1.43523,-0.52279 2.90591,-1.95447 1.47297,-3.43509 -1.63532,-1.68973 -7.52281,0.89876 -9.67485,1.16306 -5.17944,0.63611 -9.82374,-1.04713 -13.49375,-4.68676 18.92228,0 34.48706,-11.93171 45.87867,-26.19375 2.77299,-3.47172 5.18527,-7.22889 7.33933,-11.1125 0.64176,-1.15705 2.0244,-3.10484 1.59423,-4.49383 -0.52441,-1.69328 -2.512,-1.80247 -3.49204,-0.49793 -2.69048,3.58127 -4.37152,7.96666 -7.10129,11.60635 -8.84082,11.78775 -21.14743,22.50833 -35.75223,26.09473 -7.69302,1.88913 -17.11513,0.26029 -19.72759,-8.36765 -1.97822,-6.53331 -0.0852,-13.43918 2.37084,-19.57917 5.8964,-14.74048 17.71591,-27.12146 31.37966,-34.9646 6.17418,-3.54404 13.5847,-6.8079 20.90209,-5.66506 5.34161,0.83426 9.76058,4.04557 11.20763,9.40883 0.53074,1.96711 -0.0828,7.47011 1.77246,8.4583 3.72299,1.98294 2.75139,-5.33682 2.63032,-6.8708 12.83352,12.84205 -0.22716,34.18774 -9.80286,44.97917 -2.17316,2.44907 -4.40556,4.89913 -6.86589,7.06821 -3.72523,3.28426 -7.61168,6.29635 -11.90625,8.80373 -1.35205,0.78939 -4.07601,1.64991 -3.58432,3.70232 0.79431,3.31562 5.53453,-0.14108 7.02391,-1.01668 6.22896,-3.66201 12.08627,-8.64749 16.85779,-14.05967 8.73984,-9.9133 17.19788,-22.52377 17.53416,-36.24791 0.22584,-9.21694 -4.33898,-14.02465 -10.57945,-20.11221 -3.5589,-3.47169 -6.85257,-6.70732 -11.90625,-7.71988 -6.75371,-1.35318 -12.96348,0.62661 -19.31459,2.69667 V 110.0383 c 0,-4.09943 0.41739,-8.27144 -1.07548,-12.170832 -3.88882,-10.15768 -16.1004,-15.493901 -25.91201,-17.958181 -10.31905,-2.591726 -21.23497,-3.064485 -31.750003,-1.586482 -2.155648,0.303001 -9.261827,0.663242 -9.938207,3.152133 -0.366808,1.349748 0.619871,2.569061 2.000707,2.526 3.623342,-0.113002 7.452727,-1.660541 11.112503,-2.052362 15.06668,-1.613047 35.62477,0.0976 46.82083,11.686576 4.45657,4.61297 6.46404,11.195848 2.90348,16.932318 -1.11456,1.79568 -5.03464,4.51095 -4.94175,6.61438 0.21738,4.92278 6.07056,-1.37662 7.07577,-2.11647 m -49.2125,-30.050211 c -5.204285,0.683647 -10.326303,1.219265 -15.345833,2.88633 -8.075734,2.682071 -21.28151,9.103877 -16.810431,19.755551 0.608855,1.45051 1.557229,2.79429 2.59949,3.96488 1.376651,1.54614 3.178422,2.79854 4.950525,3.85278 11.34096,6.74684 26.568599,8.25843 39.422919,6.65909 8.59321,-1.06917 18.27906,-3.15647 25.13541,-8.77882 3.68745,-3.02378 6.60161,-7.961 4.88213,-12.84168 -1.70961,-4.852674 -6.32279,-7.798747 -10.70296,-9.988834 -9.93175,-4.965871 -23.10062,-6.958312 -34.13125,-5.509297 m 2.91042,3.667419 c 9.59369,-1.131948 21.27683,1.313502 29.89791,5.509289 3.72666,1.81373 8.08609,4.732875 8.60447,9.231843 0.37446,3.24978 -2.75693,6.10086 -5.16489,7.74008 -6.20226,4.22217 -13.81058,6.10947 -21.16666,7.00105 -11.34521,1.37507 -23.255405,0.25571 -33.866666,-4.16087 -3.926203,-1.63415 -9.689865,-4.81751 -10.269752,-9.52193 -0.534162,-4.33347 3.475965,-7.42142 6.830169,-9.29696 7.934312,-4.436559 16.300805,-5.460115 25.135419,-6.502502 m -8.731253,9.412103 c -1.482488,0.592422 -2.00968,2.163239 -3.274219,2.940429 -1.360824,0.83637 -3.824259,-0.29355 -4.058168,2.12503 -0.24601,2.5437 2.508992,1.614 3.806855,2.38758 0.86574,0.51602 1.380298,1.55802 2.206495,2.16526 1.888931,1.38833 4.30839,1.88697 6.6107,2.0054 2.57216,0.13231 5.81893,-0.76414 7.64536,-2.61521 1.73131,-1.75467 2.38076,-4.29349 5.05464,-4.92276 1.20635,-0.28389 5.10156,-0.53327 5.38946,1.29311 0.16255,1.03115 -1.29992,1.76328 -1.29985,2.8604 1.1e-4,1.5925 1.81762,2.15705 3.05414,1.54034 1.09585,-0.54655 1.64547,-1.74856 2.69075,-2.32654 0.87392,-0.48322 1.96716,-0.089 2.7918,-0.73291 3.25796,-2.54406 -2.3005,-3.23126 -3.29034,-3.77868 -1.26646,-0.7004 -2.10349,-1.810866 -3.51512,-2.356754 -3.31066,-1.280252 -7.81458,-0.973948 -10.55945,1.428464 -2.83107,2.47785 -3.70786,5.96798 -8.22597,5.61096 -1.2155,-0.096 -4.772258,-0.69272 -4.335818,-2.56335 0.282928,-1.21265 1.789438,-1.69165 2.100338,-2.91716 0.44273,-1.745192 -1.28518,-2.745599 -2.791603,-2.143609 M 68.463512,127.23622 c 4.56113,5.98634 12.063416,9.66514 19.049999,11.99444 16.117299,5.37346 34.988439,5.05942 50.799999,-1.26534 3.88799,-1.55524 7.53707,-3.63714 10.84791,-6.20159 1.71451,-1.32798 3.05407,-3.34286 5.02709,-4.26293 0,1.23034 0.40085,3.32127 -0.27193,4.39767 -0.74615,1.19377 -2.79207,1.82931 -3.96141,2.53539 -2.77316,1.67454 -5.40945,3.59867 -7.9375,5.62117 -2.99395,2.39525 -5.85552,6.53195 -9.26041,8.19739 -3.60068,1.76121 -8.5002,2.1543 -12.43542,2.5756 -11.33491,1.21353 -23.69681,0.51863 -34.395829,-3.74805 -6.085739,-2.42695 -12.716453,-5.99513 -16.023215,-11.90625 -1.173544,-2.09782 -2.429258,-5.57828 -1.439284,-7.9375 m 102.129158,6.99145 c -19.17785,2.54764 -35.98577,19.32846 -44.11702,36.13563 -3.60928,7.46033 -7.91786,23.43855 3.90036,26.01695 1.36065,0.29686 2.84013,0.51087 4.23333,0.4177 6.71178,-0.44884 13.24058,-3.46498 18.78542,-7.12089 10.731,-7.07534 20.68666,-17.51534 25.96591,-29.36793 3.46351,-7.77602 7.75619,-23.09978 -4.27008,-25.7932 -1.46668,-0.32847 -3.00608,-0.48644 -4.49792,-0.28826 m -0.26458,3.93221 c 1.02938,-0.12642 2.14704,-0.14453 3.175,0.004 9.95968,1.43579 4.4571,16.46511 1.64467,21.88101 -5.55243,10.69228 -14.2224,20.19175 -24.39884,26.63839 -4.69973,2.97722 -10.21856,5.75709 -15.87499,6.14626 -12.9329,0.88979 -7.5828,-15.57522 -4.16495,-22.20132 7.38549,-14.31804 22.78972,-30.40118 39.61911,-32.468 m -101.864578,1.51175 c 14.256828,17.50699 40.126738,16.33262 60.060418,13.75834 -0.96375,2.27976 -2.88988,4.25106 -4.21925,6.34999 -0.62204,0.98212 -1.17909,2.47839 -2.21772,3.09089 -2.53955,1.49763 -7.6333,0.87786 -10.49637,0.87786 -10.55008,0 -21.211837,-1.73091 -30.691662,-6.55006 -4.88638,-2.48404 -9.787954,-6.18839 -11.852149,-11.4416 -0.687971,-1.75083 -1.342017,-4.27723 -0.583267,-6.08542 m 92.604158,16.40417 c 0.001,1.65079 0.88338,5.43539 3.32485,3.25258 1.20993,-1.08175 0.36618,-2.95681 0.53876,-4.31091 0.17836,-1.39953 2.83352,-3.79683 0.34094,-4.82967 -1.66875,-0.69148 -2.52704,0.95881 -3.75092,1.64752 -1.92689,1.08432 -4.1004,0.63421 -6.00988,2.21078 -2.18504,1.8041 -3.94394,4.43307 -4.18352,7.32136 -0.16014,1.93066 0.86373,3.68014 0.93503,5.55625 0.0897,2.36015 -2.08177,4.79756 -3.89526,6.02601 -3.38564,2.29343 -2.98281,-0.69638 -3.69967,-2.83937 -0.43545,-1.30172 -2.12606,-1.67432 -3.09641,-0.72127 -1.51637,1.48933 -0.35164,3.48384 -0.5998,5.20755 -0.17581,1.22118 -3.48959,5.70389 0.51672,5.2196 1.31402,-0.15885 1.70821,-1.45797 2.80854,-1.92129 1.07576,-0.45297 2.61933,0.0103 3.80604,-0.33175 3.60715,-1.03979 6.64384,-4.46194 7.73273,-7.99364 1.48046,-4.8017 -2.57928,-8.80013 2.58622,-12.49115 0.8306,-0.59351 1.64133,-0.89918 2.64563,-1.0026 m -92.604158,-3.96875 c 11.259877,14.77827 34.723858,16.41259 51.593748,15.08125 -0.59724,2.07397 -1.6571,4.03453 -2.36043,6.08541 -0.28586,0.83358 -0.38547,2.04059 -1.19001,2.56173 -2.16054,1.39949 -8.2524,0.45297 -10.73706,0.15964 -9.919702,-1.17107 -19.787297,-2.68671 -28.310415,-8.37152 -4.210719,-2.8085 -11.487128,-9.57946 -8.995833,-15.51651 m 0,12.43541 c 10.686195,13.12239 31.409099,16.60472 47.360418,15.34584 l -0.26459,8.20208 c -13.47398,0 -28.125128,-1.01625 -39.422912,-9.30145 -3.501268,-2.56764 -9.769684,-9.24776 -7.672916,-14.24647 z"
     id="path1" /></svg>
