<?xml version="1.0" encoding="UTF-8" standalone="no"?>
<!-- Created with Inkscape (http://www.inkscape.org/) -->

<svg
   width="210mm"
   height="297mm"
   viewBox="0 0 210 297"
   version="1.1"
   id="svg1"
   xml:space="preserve"
   xmlns="http://www.w3.org/2000/svg"
   xmlns:svg="http://www.w3.org/2000/svg"><g
     id="layer1"><path
       style="fill:#050505;stroke:none"
       d="m 110.98645,69.400072 c -17.518265,2.300134 -32.44679,9.152646 -43.013984,23.964798 -3.80347,5.331369 -6.454804,11.4383 -8.202901,17.72708 -0.453678,1.63211 -2.151199,6.42015 0.945235,6.4976 1.46692,0.0367 1.968993,-1.34714 2.222213,-2.52885 0.722653,-3.3724 1.74736,-6.60332 3.073331,-9.78958 4.385647,-10.538584 12.703998,-19.871582 22.751103,-25.318334 12.586573,-6.823453 26.986263,-8.49198 40.745833,-4.467298 4.89596,1.432075 9.50696,3.724134 13.75833,6.523124 1.32998,0.875625 3.50161,3.297061 5.28003,2.681764 1.81446,-0.627763 1.35143,-2.658865 0.26071,-3.681509 -2.28296,-2.140487 -5.41752,-3.873286 -8.18657,-5.302688 -8.67055,-4.475777 -19.78939,-7.598616 -29.63333,-6.306107 m -0.26459,12.170832 c -6.25495,0.82369 -12.128875,2.22614 -17.72708,5.261048 -14.714694,7.977162 -23.73804,24.264608 -23.008337,40.928748 0.804861,18.38043 13.666951,35.34378 31.475007,40.44389 3.80152,1.08873 8.99064,2.56324 12.96356,1.82901 2.4868,-0.45958 2.12102,-3.61161 -0.26377,-3.87953 -9.97098,-1.12021 -18.297021,-3.26879 -26.193543,-9.93453 -3.839171,-3.24079 -7.007186,-7.35675 -9.339017,-11.79009 -13.509704,-25.68504 5.380393,-59.002079 35.0036,-59.002079 4.51967,0 8.91641,0.508133 13.22917,1.945989 22.56537,7.523224 34.45886,34.2124 23.87701,55.73317 -3.85862,7.84744 -10.1024,14.28261 -17.7916,18.43917 -2.7271,1.4742 -6.43103,1.87771 -8.9354,3.558 -1.3914,0.93354 -0.89225,3.20784 0.73455,3.52798 2.83413,0.55772 7.61008,-2.25853 10.05293,-3.50022 10.25681,-5.21348 18.00021,-14.6025 21.60764,-25.46451 8.43409,-25.39505 -8.57083,-53.980075 -35.36597,-57.713664 -3.35637,-0.467672 -6.93753,-0.827639 -10.31875,-0.382382 M 60.980199,165.33153 v 0.26459 c -7.110915,5.00903 -12.927055,12.89717 -19.050203,19.05 -1.815661,1.82446 -6.079404,5.02282 -6.475759,7.67291 -0.200495,1.34054 1.052749,2.74819 1.836363,3.70417 2.259947,2.75703 5.967826,7.19302 9.402099,8.46033 1.465184,0.54069 2.718257,-0.65879 3.704167,-1.59157 2.187392,-2.06953 4.34694,-4.20713 6.614379,-6.18729 0.93327,-0.81504 2.293769,-1.91557 1.990499,-3.32608 -0.359928,-1.67403 -2.119991,-1.80557 -3.313212,-0.94503 -2.782033,2.00639 -6.229307,5.03011 -8.202083,7.82297 h -0.264583 l -5.027083,-5.02708 -1.909655,-2.30572 1.30536,-1.92863 4.263547,-4.4969 17.507413,-17.99167 h 0.264584 c 1.985735,3.00196 4.996295,5.87379 7.937499,7.9375 v 0.26459 c -2.932659,2.0658 -5.808854,5.21777 -8.152065,7.9375 -0.897973,1.04226 -1.696542,2.75472 -0.275403,3.77133 1.398087,1.00012 2.729775,-0.46896 3.664969,-1.3911 2.551164,-2.51557 5.608988,-5.0065 7.672916,-7.93648 1.605558,1.29419 4.579852,4.61775 6.879166,3.77133 1.920732,-0.70706 3.860972,-3.14019 5.291667,-4.56508 0.690017,-0.68722 1.550733,-1.88258 2.645833,-1.77696 2.341366,0.22582 5.122527,2.16262 7.408333,2.90266 5.201193,1.6839 10.687603,2.5939 16.139583,2.83263 23.82003,1.04304 46.37089,-14.88645 54.49008,-37.03125 5.36907,-14.64394 4.45516,-31.65203 -2.83835,-45.50833 -1.60717,-3.053326 -3.46583,-6.030211 -5.61525,-8.731249 -0.79049,-0.993351 -1.6913,-2.496368 -2.91982,-2.978396 -1.8098,-0.710106 -3.26598,1.037389 -2.4282,2.713812 1.81248,3.626838 5.04749,6.681383 7.0182,10.318753 15.84742,29.24974 -0.60925,66.6294 -32.62541,75.40338 -23.41094,6.41574 -48.493535,-4.95715 -59.978754,-26.19089 -3.139158,-5.80363 -5.218746,-12.47478 -5.85758,-19.04999 -0.17696,-1.82136 0.432631,-6.43074 -1.644051,-7.20786 -3.499637,-1.30961 -2.407105,4.57361 -2.369613,6.14952 0.110785,4.65665 1.27278,9.64647 2.82896,14.02292 0.645854,1.81634 2.823039,5.00207 2.663595,6.87916 -0.27089,3.18915 -6.003665,4.85186 -6.485558,8.20209 -0.303292,2.10856 2.379621,4.91922 3.90342,6.08541 M 108.86978,97.97507 c -2.97063,0.390044 -6.26483,0.40109 -9.260417,0.416682 -1.248906,0.0065 -3.135027,-0.167125 -4.036938,0.907664 -0.654066,0.779434 -0.672504,2.352024 -0.71515,3.325874 -0.118892,2.71512 -0.273949,5.49189 -0.274995,8.20208 v 30.1625 c 0,2.95994 0.0858,6.03926 0.288266,8.99583 0.06976,1.0187 0.07689,2.57163 0.854179,3.32485 1.696997,1.64445 6.196585,0.74537 8.382555,0.95339 6.74522,0.64191 13.88625,0.44109 20.6375,-0.0212 2.35664,-0.16139 4.81057,0.13941 7.13966,-0.36197 2.57431,-0.55417 1.83435,-4.62181 1.85719,-6.54088 0.0818,-6.87549 0.52815,-13.74844 0.52815,-20.6375 0,-6.86978 -0.0367,-13.79196 -0.50549,-20.6375 -0.13062,-1.90743 0.67553,-5.24278 -0.70208,-6.796081 -1.24705,-1.406099 -4.01824,-0.757293 -5.6716,-0.952372 -5.80019,-0.684357 -12.7107,-1.104212 -18.52083,-0.341347 m 20.90208,4.38563 0.52917,32.80833 -0.52917,15.08125 c -7.39618,0 -14.81054,0.26459 -22.225,0.26459 -1.82703,0 -6.87443,0.59811 -8.307016,-0.53652 -0.761117,-0.60282 -0.39752,-2.31991 -0.434643,-3.16765 -0.131549,-3.00411 -0.253977,-5.97719 -0.254171,-8.99583 -7.51e-4,-11.8087 0.264583,-23.64985 0.264583,-35.45417 h 30.956247 m -25.60415,4.76985 c -1.99974,1.21775 -0.0493,4.33072 2.01704,3.12009 2.02009,-1.18356 0.0336,-4.36883 -2.01704,-3.12009 m 3.64374,10.44839 c -4.3184,0.92299 -5.45169,4.95732 -4.97829,8.85885 0.57814,4.76487 7.26238,11.24977 12.38662,10.18155 6.47654,-1.35012 15.45743,-11.32931 8.70348,-17.50292 -1.79657,-1.64219 -4.54397,-2.05401 -6.8514,-1.42908 -0.93402,0.25297 -1.92721,1.07 -2.91041,0.99464 -2.28413,-0.17507 -3.82798,-1.64208 -6.35,-1.10304 m 0.53325,3.96773 c 3.94366,-1.22069 3.08971,3.33342 5.81756,3.71989 1.80686,0.25598 1.83864,-1.73267 2.57581,-2.76874 0.75793,-1.06524 2.2958,-1.31315 3.50471,-0.97238 1.83437,0.51708 2.05464,2.82069 1.65487,4.38318 -0.78631,3.07332 -3.67946,5.65923 -6.67787,6.58294 -3.19749,0.98503 -7.54692,-3.25444 -8.33621,-6.05377 -0.47379,-1.68039 -0.61889,-4.24729 1.46113,-4.89112 m 14.3122,20.69895 c -2.14847,0.89031 -0.67859,4.2184 1.54422,3.34689 2.2797,-0.89381 0.68432,-4.27039 -1.54422,-3.34689 m -56.385035,12.76716 c 3.429987,7.2505 11.534926,15.35543 18.785416,18.78542 -0.638103,1.36833 -3.066714,4.45031 -4.7625,4.45096 -1.934879,7.5e-4 -5.255578,-3.74475 -6.614583,-5.00361 -3.175807,-2.94178 -6.1672,-5.9533 -8.995833,-9.23693 -0.880932,-1.02264 -2.651824,-2.57972 -2.865912,-3.96875 -0.270383,-1.75429 3.084037,-4.38849 4.453412,-5.02709 z"
       id="path1" /></g></svg>
