<?xml version="1.0" encoding="UTF-8" standalone="no"?>
<!-- Created with Inkscape (http://www.inkscape.org/) -->

<svg
   width="210mm"
   height="297mm"
   viewBox="0 0 210 297"
   version="1.1"
   id="svg1"
   xml:space="preserve"
   xmlns="http://www.w3.org/2000/svg"
   xmlns:svg="http://www.w3.org/2000/svg"
   ><g
     id="g3"
     transform="matrix(2.9970003,0,0,2.9970003,-136.28404,-186.88433)"><path
       style="fill:#050505;stroke:none"
       d="m 97.621948,107.02818 c -0.63907,-0.63329 -2.689565,-2.12045 -2.830317,-0.15107 -0.06248,0.87419 0.920578,1.54866 1.439672,2.12259 0.611944,0.67659 1.34622,1.87407 2.300578,2.07204 1.229726,0.25508 4.092169,-2.8832 4.202819,-4.04356 0.20575,-2.1575 -2.21101,-0.62123 -2.837923,0 0,-3.18044 0.421233,-6.6218 -2.729795,-8.528977 -1.660884,-1.005272 -3.74181,-0.895436 -5.611252,-0.873078 -0.831157,0.0099 -1.938523,0.139035 -1.938523,1.212198 0,0.88438 0.760953,1.05138 1.483556,1.06147 1.529847,0.0213 3.315964,-0.28437 4.70132,0.511127 2.388856,1.37175 1.819865,4.29272 1.819865,6.61726 m -48.397623,18.05021 c 0,3.18044 -0.421218,6.6218 2.729799,8.52898 1.668286,1.00974 3.736075,0.88271 5.611252,0.87354 0.841964,-0.004 1.938522,-0.1171 1.938522,-1.21266 0,-0.88439 -0.760945,-1.05138 -1.483556,-1.06147 -1.530421,-0.0214 -3.315191,0.28384 -4.701319,-0.51114 -2.394626,-1.37337 -1.819866,-4.28325 -1.819866,-6.61725 0.617967,0.61237 2.730131,2.13303 2.818148,0.15107 0.05045,-1.13605 -2.874146,-4.29366 -4.031391,-4.21441 -0.97415,0.0667 -1.939294,1.4163 -2.534847,2.09182 -0.496176,0.56279 -1.405597,1.29822 -1.369229,2.12306 0.08839,2.00464 2.215764,0.46951 2.842487,-0.15154"
       id="path1-4"
       sodipodi:nodetypes="csssscscscsccscscscssssc" /><path
       style="fill:#040404;stroke:none"
       d="m 59.787394,92.247458 c -1.78785,0.337285 -1.346035,2.613503 -1.346035,3.939335 v 12.518127 3.6343 c 2.4e-5,0.38413 0.02068,1.0516 0.604469,0.91174 0.484844,-0.11616 0.405057,-0.73687 0.405057,-1.11365 V 108.63762 97.398225 94.57155 c 0,-0.378014 -0.07579,-0.835694 0.217277,-1.128759 0.280563,-0.280563 0.698977,-0.217276 1.061457,-0.217276 h 2.490165 8.614627 2.220959 c 0.289565,0 0.683613,0.06472 0.932255,-0.117259 0.387443,-0.283559 0.158589,-0.800221 -0.259289,-0.876897 -0.92619,-0.169946 -2.019053,-0.01537 -2.961227,-0.01537 h -8.00891 c -1.265575,0 -2.727398,-0.203105 -3.970805,0.03147 m 17.164912,0.01246 c -0.484576,0.162066 -0.408707,0.826611 0.06538,0.939058 0.775813,0.184009 1.759419,0.0252 2.556428,0.02654 0.444348,7.41e-4 0.899812,0.08886 0.994155,0.605716 0.142536,0.780871 0.01537,1.696239 0.01537,2.490165 v 5.182232 16.01782 5.72066 c 0,0.56709 0.212737,1.68595 -0.16379,2.14633 -0.312151,0.38167 -0.879143,0.27653 -1.316849,0.27653 h -3.297787 -11.845112 -3.02858 c -0.377219,0 -0.891049,0.0923 -1.20411,-0.16379 -0.508018,-0.41549 -0.276529,-1.60047 -0.276529,-2.19177 v -6.32637 c 0,-0.57914 0.124657,-1.32591 -0.03853,-1.88414 -0.09406,-0.32177 -0.445017,-0.51274 -0.753718,-0.32477 -0.248693,0.15143 -0.216856,0.47687 -0.217276,0.72827 v 1.95175 6.46097 c 0,0.90359 -0.138588,1.92622 0.740371,2.49219 0.523751,0.33726 1.156667,0.26719 1.749794,0.26719 h 3.365089 11.575905 3.163183 c 0.559674,0 1.167306,0.073 1.682544,-0.19085 0.966915,-0.49515 0.874923,-1.51241 0.874923,-2.43392 v -6.19177 -17.16195 -5.047629 c 0,-0.720999 0.162664,-1.674949 -0.09882,-2.355562 -0.514791,-1.339928 -2.046116,-1.076829 -3.198965,-1.076829 -0.413194,0 -0.947468,-0.08838 -1.343075,0.04393 m -9.357906,12.84192 c -0.41846,0.074 -0.796354,0.22498 -1.144131,0.4695 -2.706961,1.90325 -0.256762,5.35365 1.480639,6.88327 0.569997,0.50183 1.444868,1.50103 2.288261,1.34229 0.645861,-0.12155 1.268817,-0.81533 1.749846,-1.22747 1.722585,-1.47592 4.096504,-4.49853 2.006641,-6.6849 -0.745528,-0.77995 -1.952568,-0.99867 -2.948866,-0.64248 -0.310141,0.11088 -0.68895,0.51001 -1.009527,0.51001 -0.25395,0 -0.517069,-0.28415 -0.740319,-0.39026 -0.516502,-0.2455 -1.115206,-0.36025 -1.682544,-0.25996 m 0.0673,1.00044 c 0.55073,-0.0967 1.111254,0.0811 1.547941,0.41731 0.236215,0.18188 0.479432,0.55015 0.807621,0.55015 0.366734,0 0.659331,-0.45802 0.942225,-0.64601 0.712839,-0.47372 1.641309,-0.4798 2.268007,0.14779 1.628903,1.63124 -0.596065,4.08555 -1.796894,5.14277 -0.344634,0.30341 -0.879407,0.93225 -1.346036,1.01981 -0.463756,0.087 -1.23366,-0.79507 -1.547941,-1.07932 -1.011732,-0.91507 -2.046284,-2.02403 -2.239134,-3.42097 -0.126911,-0.9193 0.378666,-1.95846 1.364211,-2.13153"
       id="path2"
       sodipodi:nodetypes="csccssccsssccsssssccssssccsssccscssssccsssccsssccsssccssssssssccssssssssc" /><path
       style="fill:#040404;stroke:none"
       d="m 80.852994,104.64905 h 2.22096 c 0.28956,0 0.68361,0.0647 0.93225,-0.11726 0.38745,-0.28355 0.15859,-0.80022 -0.25929,-0.87689 -0.92619,-0.16995 -2.01905,-0.0154 -2.96122,-0.0154 m 5.18519,0.044 c -0.48457,0.16206 -0.4087,0.82661 0.0654,0.93906 0.77582,0.184 1.75942,0.0252 2.55643,0.0265 0.44435,7.4e-4 0.89981,0.0889 0.99416,0.60571 0.14253,0.78087 0.0154,1.69624 0.0154,2.49017 v 5.18223 16.01782 5.72066 c 0,0.56709 0.21273,1.68595 -0.16379,2.14633 -0.31215,0.38167 -0.87915,0.27653 -1.31685,0.27653 h -3.29779 -11.84511 -3.02858 c -0.37722,0 -0.89105,0.0923 -1.20411,-0.16379 -0.50802,-0.41549 -0.27653,-1.60047 -0.27653,-2.19177 v -6.32637 c 0,-0.57914 0.12466,-1.32591 -0.0385,-1.88414 -0.0941,-0.32177 -0.44501,-0.51274 -0.75371,-0.32477 -0.2487,0.15143 -0.21686,0.47687 -0.21728,0.72827 v 1.95175 6.46097 c 0,0.90359 -0.13859,1.92622 0.74037,2.49219 0.52375,0.33726 1.15667,0.26719 1.74979,0.26719 h 3.36509 11.5759 3.16319 c 0.55967,0 1.1673,0.073 1.68254,-0.19085 0.96692,-0.49515 0.87492,-1.51241 0.87492,-2.43392 v -6.19177 -17.16195 -5.04763 c 0,-0.721 0.16267,-1.67495 -0.0988,-2.35556 -0.51479,-1.33993 -2.04611,-1.07683 -3.19896,-1.07683 -0.41319,0 -0.94747,-0.0884 -1.34308,0.0439"
       id="path3"
       sodipodi:nodetypes="csssccssssccsssccscssssccsssccsssccsssc" /></g></svg>
